<?xml version="1.0" encoding="utf-8"?>
<!-- Generator: Adobe Illustrator 23.0.0, SVG Export Plug-In . SVG Version: 6.00 Build 0)  -->
<svg version="1.1" id="Слой_1" xmlns="http://www.w3.org/2000/svg" xmlns:xlink="http://www.w3.org/1999/xlink" x="0px" y="0px"
	 viewBox="0 0 689 201" style="enable-background:new 0 0 689 201;" xml:space="preserve">
<g transform="translate(0.000000,201.000000) scale(0.100000,-0.100000)">
	<path d="M560,1904c-162-35-304-145-379-295c-22-43-44-102-50-131c-7-34-10-178-9-403l3-350h150h150l5,360c5,348,6,361,27,395
		c31,50,71,86,123,109c43,19,64,21,402,21c328,0,360-2,400-19c55-24,105-74,132-131c20-43,21-64,24-392l3-348h149h150v358
		c0,393-3,423-60,537c-76,150-228,263-399,295C1296,1926,639,1921,560,1904z"/>
	<path d="M852,903c4-361,5-381,26-437c63-169,181-287,352-352l75-29h390c350,0,396,2,449,18c193,60,335,202,393,392
		c16,53,18,100,18,420v360l-152,3l-152,3l-3-353c-3-322-5-356-22-388c-26-49-74-98-121-123c-39-21-50-22-405-22h-365l-47,28
		c-26,15-59,43-74,62c-51,67-53,84-54,453v342h-156H849L852,903z"/>
</g>
<g>
	<path d="M325.9,67.9H371V81h-45.1c-3.8,0-7.1-1.4-9.8-4c-2.7-2.7-4.1-6-4.1-9.8V36.8c0-3.8,1.4-7,4.1-9.8c2.7-2.7,5.9-4,9.8-4h44.9
		v13.1h-44.9c-0.5,0-0.7,0.2-0.7,0.7v30.4C325.2,67.7,325.4,67.9,325.9,67.9z"/>
	<path d="M395.5,23h32.2v13.1h-32.2c-0.5,0-0.7,0.2-0.7,0.7V81h-13.1V36.8c0-3.8,1.3-7,4-9.8C388.4,24.4,391.7,23,395.5,23z"/>
	<path d="M492.4,90.2c0,3.8-1.3,7-4,9.8c-2.7,2.7-5.9,4-9.7,4h-35.5V90.8h35.5c0.4,0,0.6-0.2,0.6-0.6V81h-32c-3.8,0-7-1.4-9.8-4
		c-2.7-2.7-4-6-4-9.8v-44h13.1v44c0,0.5,0.2,0.7,0.7,0.7h31.4c0.4,0,0.6-0.2,0.6-0.7v-44h13.1V90.2z"/>
	<path d="M548.3,23c3.8,0,7,1.4,9.8,4c2.7,2.7,4,6,4,9.8v30.4c0,3.8-1.3,7-4,9.8c-2.7,2.7-6,4-9.8,4h-32v23h-13.1V23H548.3z
		 M549,67.2V36.8c0-0.5-0.2-0.7-0.7-0.7H517c-0.5,0-0.7,0.2-0.7,0.7v30.4c0,0.5,0.2,0.7,0.7,0.7h31.3C548.8,67.9,549,67.7,549,67.2z
		"/>
	<path d="M605.2,36.1h-22.6v31.1c0,0.5,0.2,0.7,0.7,0.7h21.9V81h-21.9c-3.9,0-7.1-1.4-9.8-4c-2.7-2.7-4-6-4-9.8V4h13.1v19h22.6V36.1
		z"/>
	<path d="M626.8,23h31.3c3.8,0,7,1.4,9.8,4c2.7,2.7,4,6,4,9.8v30.4c0,3.8-1.3,7-4,9.8c-2.7,2.7-6,4-9.8,4h-31.3
		c-3.8,0-7.1-1.4-9.8-4c-2.7-2.7-4.1-6-4.1-9.8V36.8c0-3.8,1.4-7,4.1-9.8C619.7,24.4,623,23,626.8,23z M658.1,36.1h-31.3
		c-0.5,0-0.7,0.2-0.7,0.7v30.4c0,0.5,0.2,0.7,0.7,0.7h31.3c0.5,0,0.7-0.2,0.7-0.7V36.8C658.8,36.3,658.6,36.1,658.1,36.1z"/>
</g>
<g>
	<path d="M347.9,122h31.3c3.8,0,7,1.3,9.8,4s4,6,4,9.8v30.4c0,3.8-1.3,7-4,9.8s-6,4-9.8,4h-31.3c-3.8,0-7.1-1.3-9.8-4
		c-2.7-2.7-4.1-6-4.1-9.8v-30.4c0-3.8,1.4-7,4.1-9.8C340.8,123.3,344.1,122,347.9,122z M379.2,135.1h-31.3c-0.5,0-0.7,0.2-0.7,0.7
		v30.4c0,0.5,0.2,0.7,0.7,0.7h31.3c0.5,0,0.7-0.2,0.7-0.7v-30.4C379.9,135.3,379.7,135.1,379.2,135.1z"/>
	<path d="M448.7,122c3.8,0,7,1.3,9.8,4s4,6,4,9.8v30.4c0,3.8-1.3,7-4,9.8s-6,4-9.8,4h-45.1v-77h13.1v19H448.7z M449.4,166.2v-30.4
		c0-0.5-0.2-0.7-0.7-0.7h-31.3c-0.5,0-0.7,0.2-0.7,0.7v30.4c0,0.5,0.2,0.7,0.7,0.7h31.3C449.2,166.9,449.4,166.7,449.4,166.2z"/>
	<path d="M542.2,122c3.8,0,7,1.3,9.8,4s4,6,4,9.8V180h-13v-44.2c0-0.5-0.3-0.7-0.8-0.7h-21.8c-0.4,0-0.6,0.2-0.6,0.7V180h-13.2
		v-44.2c0-0.5-0.2-0.7-0.6-0.7h-21.9c-0.5,0-0.7,0.2-0.7,0.7V180h-13.1v-58H542.2z"/>
	<path d="M567.9,103H581v13.2h-13.1V103z M567.9,180v-58H581v58H567.9z"/>
	<path d="M636.5,122c3.8,0,7,1.3,9.8,4s4,6,4,9.8V180h-13.1v-44.2c0-0.5-0.2-0.7-0.7-0.7h-31.3c-0.5,0-0.7,0.2-0.7,0.7V180h-13.1
		v-58H636.5z"/>
</g>
</svg>
