<svg width="713" height="284" viewBox="0 0 713 284" fill="none" xmlns="http://www.w3.org/2000/svg">
<path d="M188.009 275V278.5H191.509V275H188.009ZM131.209 275H127.709V278.5H131.209V275ZM131.209 219.8H134.709V216.3H131.209V219.8ZM3.60938 219.8H0.109375V223.3H3.60938V219.8ZM3.60938 175L0.655394 173.123L0.109375 173.982V175H3.60938ZM109.609 8.19998V4.69998H107.687L106.655 6.32275L109.609 8.19998ZM188.009 8.19998H191.509V4.69998H188.009V8.19998ZM188.009 169.8H184.509V173.3H188.009V169.8ZM222.409 169.8H225.909V166.3H222.409V169.8ZM222.409 219.8V223.3H225.909V219.8H222.409ZM188.009 219.8V216.3H184.509V219.8H188.009ZM131.209 169.8V173.3H134.709V169.8H131.209ZM131.209 58.6H134.709V46.7547L128.271 56.6977L131.209 58.6ZM59.2094 169.8L56.2715 167.898L52.7736 173.3H59.2094V169.8ZM188.009 271.5H131.209V278.5H188.009V271.5ZM134.709 275V219.8H127.709V275H134.709ZM131.209 216.3H3.60938V223.3H131.209V216.3ZM7.10938 219.8V175H0.109375V219.8H7.10938ZM6.56336 176.877L112.563 10.0772L106.655 6.32275L0.655394 173.123L6.56336 176.877ZM109.609 11.7H188.009V4.69998H109.609V11.7ZM184.509 8.19998V169.8H191.509V8.19998H184.509ZM188.009 173.3H222.409V166.3H188.009V173.3ZM218.909 169.8V219.8H225.909V169.8H218.909ZM222.409 216.3H188.009V223.3H222.409V216.3ZM184.509 219.8V275H191.509V219.8H184.509ZM134.709 169.8V58.6H127.709V169.8H134.709ZM128.271 56.6977L56.2715 167.898L62.1473 171.702L134.147 60.5023L128.271 56.6977ZM59.2094 173.3H131.209V166.3H59.2094V173.3ZM418.281 259.4L420.462 262.137L420.475 262.127L420.488 262.116L418.281 259.4ZM293.881 259.4L291.674 262.116L291.697 262.135L291.721 262.154L293.881 259.4ZM257.081 75.4L260.365 76.61L257.081 75.4ZM293.881 24.6L291.721 21.8464L291.71 21.8545L291.7 21.8628L293.881 24.6ZM418.281 24.6L416.1 27.3372L418.281 24.6ZM455.081 75.4L451.797 76.61L451.804 76.6289L451.811 76.6478L455.081 75.4ZM455.081 208.2L451.811 206.952L451.804 206.971L451.797 206.99L455.081 208.2ZM395.881 205.4L392.793 203.753L392.782 203.773L392.772 203.793L395.881 205.4ZM395.881 78.6L392.772 80.2066L392.788 80.2378L392.805 80.2687L395.881 78.6ZM316.281 78.6L319.358 80.2687L319.364 80.2579L319.369 80.247L316.281 78.6ZM416.1 256.663C399.723 269.713 379.85 276.3 356.281 276.3V283.3C381.246 283.3 402.706 276.287 420.462 262.137L416.1 256.663ZM356.281 276.3C332.714 276.3 312.696 269.713 296.042 256.646L291.721 262.154C309.734 276.287 331.315 283.3 356.281 283.3V276.3ZM296.088 256.684C279.5 243.206 267.611 226.656 260.365 206.99L253.797 209.41C261.485 230.278 274.129 247.861 291.674 262.116L296.088 256.684ZM260.365 206.99C253.057 187.151 249.381 165.433 249.381 141.8H242.381C242.381 166.167 246.173 188.715 253.797 209.41L260.365 206.99ZM249.381 141.8C249.381 118.167 253.057 96.4485 260.365 76.61L253.797 74.19C246.173 94.8848 242.381 117.433 242.381 141.8H249.381ZM260.365 76.61C267.609 56.9502 279.491 40.5429 296.062 27.3372L291.7 21.8628C274.139 35.8571 261.487 53.3165 253.797 74.19L260.365 76.61ZM296.042 27.3536C312.696 14.2867 332.714 7.69998 356.281 7.69998V0.699982C331.315 0.699982 309.734 7.71322 291.721 21.8464L296.042 27.3536ZM356.281 7.69998C379.85 7.69998 399.723 14.2867 416.1 27.3372L420.462 21.8628C402.706 7.7133 381.246 0.699982 356.281 0.699982V7.69998ZM416.1 27.3372C432.672 40.5429 444.554 56.9502 451.797 76.61L458.365 74.19C450.675 53.3165 438.024 35.8571 420.462 21.8628L416.1 27.3372ZM451.811 76.6478C459.377 96.4758 463.181 118.181 463.181 141.8H470.181C470.181 117.419 466.252 94.8576 458.351 74.1522L451.811 76.6478ZM463.181 141.8C463.181 165.419 459.377 187.124 451.811 206.952L458.351 209.448C466.252 188.742 470.181 166.181 470.181 141.8H463.181ZM451.797 206.99C444.552 226.656 432.662 243.206 416.074 256.684L420.488 262.116C438.034 247.861 450.677 230.278 458.365 209.41L451.797 206.99ZM313.193 207.047C317.708 215.513 323.585 222.024 330.881 226.401C338.176 230.778 346.687 232.9 356.281 232.9V225.9C347.742 225.9 340.52 224.021 334.482 220.399C328.444 216.776 323.388 211.287 319.369 203.753L313.193 207.047ZM356.281 232.9C365.874 232.9 374.359 230.779 381.595 226.393C388.833 222.007 394.612 215.482 398.991 207.007L392.772 203.793C388.884 211.318 383.93 216.793 377.967 220.407C372.004 224.021 364.821 225.9 356.281 225.9V232.9ZM398.969 207.047C407.868 190.362 412.181 168.531 412.181 141.8H405.181C405.181 167.869 400.961 188.438 392.793 203.753L398.969 207.047ZM412.181 141.8C412.181 115.074 407.87 93.3631 398.958 76.9313L392.805 80.2687C400.959 95.3036 405.181 115.726 405.181 141.8H412.181ZM398.991 76.9934C394.612 68.5177 388.833 61.9933 381.595 57.6068C374.359 53.2212 365.874 51.1 356.281 51.1V58.1C364.821 58.1 372.004 59.9788 377.967 63.5932C383.93 67.2067 388.884 72.6823 392.772 80.2066L398.991 76.9934ZM356.281 51.1C346.687 51.1 338.176 53.2215 330.881 57.5988C323.585 61.976 317.708 68.4875 313.193 76.9529L319.369 80.247C323.388 72.7125 328.444 67.2239 334.482 63.6012C340.52 59.9785 347.742 58.1 356.281 58.1V51.1ZM313.205 76.9313C304.293 93.3631 299.981 115.074 299.981 141.8H306.981C306.981 115.726 311.203 95.3036 319.358 80.2687L313.205 76.9313ZM299.981 141.8C299.981 168.531 304.294 190.362 313.193 207.047L319.369 203.753C311.202 188.438 306.981 167.869 306.981 141.8H299.981ZM674.728 275V278.5H678.228V275H674.728ZM617.928 275H614.428V278.5H617.928V275ZM617.928 219.8H621.428V216.3H617.928V219.8ZM490.328 219.8H486.828V223.3H490.328V219.8ZM490.328 175L487.374 173.123L486.828 173.982V175H490.328ZM596.328 8.19998V4.69998H594.405L593.374 6.32275L596.328 8.19998ZM674.728 8.19998H678.228V4.69998H674.728V8.19998ZM674.728 169.8H671.228V173.3H674.728V169.8ZM709.128 169.8H712.628V166.3H709.128V169.8ZM709.128 219.8V223.3H712.628V219.8H709.128ZM674.728 219.8V216.3H671.228V219.8H674.728ZM617.928 169.8V173.3H621.428V169.8H617.928ZM617.928 58.6H621.428V46.7547L614.99 56.6977L617.928 58.6ZM545.928 169.8L542.99 167.898L539.492 173.3H545.928V169.8ZM674.728 271.5H617.928V278.5H674.728V271.5ZM621.428 275V219.8H614.428V275H621.428ZM617.928 216.3H490.328V223.3H617.928V216.3ZM493.828 219.8V175H486.828V219.8H493.828ZM493.282 176.877L599.282 10.0772L593.374 6.32275L487.374 173.123L493.282 176.877ZM596.328 11.7H674.728V4.69998H596.328V11.7ZM671.228 8.19998V169.8H678.228V8.19998H671.228ZM674.728 173.3H709.128V166.3H674.728V173.3ZM705.628 169.8V219.8H712.628V169.8H705.628ZM709.128 216.3H674.728V223.3H709.128V216.3ZM671.228 219.8V275H678.228V219.8H671.228ZM621.428 169.8V58.6H614.428V169.8H621.428ZM614.99 56.6977L542.99 167.898L548.866 171.702L620.866 60.5023L614.99 56.6977ZM545.928 173.3H617.928V166.3H545.928V173.3Z" fill="#352AC0"/>
</svg>
