<svg id="svg" version="1.1" xmlns="http://www.w3.org/2000/svg" xmlns:xlink="http://www.w3.org/1999/xlink"  viewBox="0, 0, 400,400"><g id="svgg"><path id="path0" d="M245.313 96.768 C 244.775 96.866,240.996 97.910,236.914 99.089 C 216.176 105.077,197.683 108.517,175.000 110.607 C 171.643 110.916,161.919 111.109,148.242 111.138 C 124.313 111.189,125.663 111.047,121.181 113.977 C 116.894 116.779,114.901 120.434,113.279 128.463 C 109.373 147.799,107.316 178.830,108.956 193.683 C 109.225 196.116,109.361 198.191,109.259 198.293 C 109.157 198.395,106.023 194.433,102.294 189.488 C 94.399 179.018,94.757 179.104,94.781 187.695 C 94.808 197.395,98.393 204.692,105.777 210.074 C 108.361 211.956,108.423 212.045,110.123 216.246 C 116.374 231.695,130.635 251.116,140.255 257.283 C 141.212 257.897,143.664 259.564,145.705 260.989 C 154.205 266.926,168.542 273.416,176.252 274.817 C 177.632 275.068,177.708 275.163,177.915 276.896 C 179.059 286.480,184.699 292.846,193.750 294.769 C 208.613 297.927,221.875 289.411,221.875 276.710 C 221.875 273.862,221.566 274.136,226.909 272.264 C 236.163 269.021,244.066 264.882,251.610 259.327 C 253.033 258.279,254.380 257.422,254.604 257.422 C 255.375 257.422,265.291 247.518,268.457 243.586 C 278.799 230.744,286.951 212.414,289.059 197.266 C 290.020 190.357,290.175 189.873,292.234 187.347 C 298.973 179.079,300.429 167.794,296.034 157.895 L 295.117 155.830 290.630 166.391 C 288.161 172.200,286.031 176.953,285.895 176.953 C 285.759 176.953,285.526 175.854,285.378 174.512 C 283.166 154.481,267.684 109.674,260.301 101.933 C 256.452 97.898,250.457 95.832,245.313 96.768 M246.743 125.968 C 253.154 127.177,260.521 131.955,261.151 135.313 C 261.900 139.306,258.655 141.599,254.175 140.244 C 244.851 137.423,236.446 138.271,226.445 143.040 C 213.669 149.133,213.246 137.064,225.977 129.640 C 232.592 125.782,239.385 124.581,246.743 125.968 M17.773 136.161 C 12.097 139.114,11.676 145.167,16.297 157.422 C 22.635 174.233,29.504 187.041,37.876 197.656 C 42.176 203.108,43.494 205.686,44.675 210.953 L 45.581 214.992 47.888 214.900 C 49.157 214.850,57.490 214.378,66.406 213.851 C 86.279 212.677,85.123 212.677,86.848 213.848 C 88.527 214.987,88.556 214.954,89.075 211.217 C 90.180 203.275,87.956 198.993,79.291 192.383 C 76.901 190.560,71.617 185.666,66.602 180.630 C 55.327 169.308,50.943 166.999,45.741 169.638 C 45.010 170.009,44.364 170.313,44.307 170.313 C 43.050 170.313,30.026 147.821,27.348 141.026 C 25.436 136.176,21.546 134.199,17.773 136.161 M377.038 136.175 C 375.360 137.031,374.469 138.336,372.632 142.636 C 369.313 150.400,361.587 163.556,356.417 170.246 C 356.363 170.317,355.885 170.092,355.357 169.745 C 353.865 168.768,350.839 168.564,348.387 169.277 C 344.199 170.495,342.329 172.018,332.031 182.604 C 329.346 185.365,325.215 189.177,322.852 191.074 C 320.488 192.972,317.621 195.343,316.480 196.343 C 312.528 199.810,310.750 205.327,311.633 211.387 C 312.192 215.223,312.067 215.073,313.848 214.022 L 315.295 213.168 333.917 214.238 C 344.159 214.826,353.137 215.247,353.868 215.173 L 355.196 215.039 355.923 211.427 C 356.938 206.391,357.942 203.942,360.101 201.241 C 369.979 188.884,374.904 180.408,381.821 163.865 C 387.510 150.256,388.675 144.309,386.504 139.952 C 384.609 136.149,380.390 134.465,377.038 136.175 M154.883 137.685 C 164.331 140.136,170.375 146.843,166.644 150.737 C 165.011 152.441,163.932 152.527,159.329 151.319 C 150.414 148.978,141.911 149.957,132.913 154.362 C 127.760 156.885,126.848 157.006,124.851 155.436 C 119.285 151.057,129.332 140.087,141.308 137.467 C 145.284 136.598,151.046 136.690,154.883 137.685 M246.942 150.640 C 261.395 156.265,258.301 178.226,242.969 178.840 C 226.053 179.517,222.348 154.779,238.681 150.212 C 241.192 149.511,244.477 149.681,246.942 150.640 M151.250 161.376 C 166.749 164.661,166.549 187.700,151.001 190.230 C 133.150 193.136,128.359 164.844,146.111 161.364 C 148.566 160.883,148.927 160.884,151.250 161.376 M209.781 223.831 C 217.842 225.360,223.349 232.548,221.880 239.625 C 220.748 245.075,216.219 247.529,205.601 248.443 C 192.782 249.547,187.102 246.051,187.582 237.353 C 188.104 227.896,198.339 221.661,209.781 223.831 " stroke="none" fill="#f7b915" fill-rule="evenodd"></path><path id="path1" d="M182.813 13.519 C 182.061 13.605,179.688 13.863,177.539 14.093 C 125.710 19.655,93.263 49.312,85.973 97.785 C 82.652 119.867,85.002 154.724,91.034 172.852 C 91.754 175.015,105.916 194.800,108.649 197.461 L 109.451 198.242 109.214 197.070 C 106.203 182.194,110.373 130.922,115.447 120.451 C 119.459 112.171,124.362 110.335,140.736 110.985 C 173.535 112.285,204.450 108.283,239.394 98.212 C 249.731 95.233,255.761 96.372,260.986 102.291 C 268.018 110.256,283.188 154.533,285.363 173.438 C 285.857 177.737,285.118 178.948,292.514 161.719 L 297.461 150.195 297.410 141.211 C 297.062 79.959,271.397 33.420,229.883 18.764 C 217.893 14.531,195.707 12.059,182.813 13.519 M238.048 125.834 C 225.466 126.958,212.467 138.927,218.403 143.922 C 220.210 145.443,221.572 145.231,227.022 142.582 C 235.996 138.221,244.273 137.280,252.734 139.660 C 257.216 140.920,258.023 140.883,259.560 139.346 C 265.530 133.376,251.595 124.623,238.048 125.834 M140.401 137.877 C 129.014 140.863,120.255 150.412,124.766 154.922 C 126.595 156.752,128.114 156.705,131.757 154.706 C 140.262 150.040,149.399 148.767,158.521 150.977 C 165.284 152.616,167.578 151.821,167.578 147.840 C 167.578 140.844,151.527 134.959,140.401 137.877 M238.017 150.540 C 225.892 154.500,224.881 171.860,236.445 177.518 C 247.771 183.059,259.926 170.943,255.134 158.888 C 252.522 152.316,244.522 148.415,238.017 150.540 M144.270 162.028 C 132.448 166.250,131.566 183.184,142.878 188.753 C 156.844 195.628,169.400 177.421,158.791 165.678 C 155.473 162.006,148.934 160.362,144.270 162.028 M199.735 224.425 C 186.669 227.945,182.922 243.586,194.203 247.515 C 198.790 249.113,211.221 248.240,216.144 245.974 C 226.063 241.408,222.314 226.965,210.502 224.242 C 208.069 223.681,202.120 223.782,199.735 224.425 " stroke="none" fill="#583d36" fill-rule="evenodd"></path><path id="path2" d="M64.269 223.350 C 55.681 223.852,48.585 224.331,48.501 224.416 C 48.066 224.851,47.970 349.197,48.403 351.944 C 52.890 380.441,93.422 387.723,98.465 360.938 C 100.043 352.555,108.070 349.063,114.031 354.165 C 117.305 356.968,117.366 357.307,117.507 373.340 L 117.631 387.500 200.191 387.500 L 282.752 387.500 282.891 373.535 C 283.050 357.634,283.081 357.455,286.228 354.686 C 292.286 349.353,300.230 352.808,301.951 361.523 C 307.218 388.195,347.448 380.687,351.979 352.187 C 352.437 349.311,352.304 225.221,351.843 224.760 C 351.655 224.572,320.559 222.718,320.366 222.884 C 320.036 223.167,312.878 275.300,313.023 276.367 C 313.246 278.010,309.093 320.161,308.621 321.043 C 307.528 323.085,304.066 323.705,302.154 322.200 C 299.858 320.394,299.859 320.443,301.743 302.697 C 303.665 284.593,303.684 286.115,301.533 285.827 C 299.778 285.591,298.331 284.727,293.221 280.859 C 281.135 271.713,267.193 267.314,249.023 266.915 L 240.430 266.727 236.328 268.661 C 234.072 269.725,231.415 270.898,230.423 271.268 L 228.620 271.941 228.427 276.498 C 227.762 292.155,217.355 301.317,200.195 301.352 C 183.024 301.386,172.538 292.484,171.592 277.069 L 171.372 273.475 170.159 273.212 C 168.155 272.779,160.565 269.745,157.024 267.964 L 153.711 266.297 148.615 266.526 C 131.600 267.292,118.166 272.082,105.078 282.052 C 101.779 284.566,100.026 285.547,98.835 285.547 C 97.533 285.547,97.541 285.876,99.199 301.571 C 101.174 320.252,101.171 320.001,99.453 321.719 C 96.861 324.311,92.624 323.042,92.019 319.492 C 91.894 318.762,90.911 309.023,89.834 297.852 C 88.064 279.496,81.258 227.038,80.178 223.427 L 79.883 222.439 64.269 223.350 " stroke="none" fill="#04b198" fill-rule="evenodd"></path><path id="path3" d="M130.371 110.829 C 131.069 110.916,132.212 110.916,132.910 110.829 C 133.608 110.743,133.037 110.672,131.641 110.672 C 130.244 110.672,129.673 110.743,130.371 110.829 M169.043 110.823 C 169.526 110.916,170.317 110.916,170.801 110.823 C 171.284 110.729,170.889 110.653,169.922 110.653 C 168.955 110.653,168.560 110.729,169.043 110.823 M140.723 111.222 C 141.528 111.306,142.847 111.306,143.652 111.222 C 144.458 111.138,143.799 111.069,142.188 111.069 C 140.576 111.069,139.917 111.138,140.723 111.222 M159.288 111.224 C 160.206 111.307,161.613 111.305,162.413 111.221 C 163.213 111.138,162.461 111.070,160.742 111.071 C 159.023 111.073,158.369 111.142,159.288 111.224 M238.579 125.667 C 239.065 125.760,239.768 125.757,240.141 125.659 C 240.515 125.561,240.117 125.485,239.258 125.489 C 238.398 125.493,238.093 125.573,238.579 125.667 M241.900 125.671 C 242.494 125.761,243.373 125.758,243.853 125.666 C 244.333 125.573,243.848 125.499,242.773 125.502 C 241.699 125.505,241.306 125.581,241.900 125.671 M146.191 137.003 C 146.997 137.088,148.315 137.088,149.121 137.003 C 149.927 136.919,149.268 136.850,147.656 136.850 C 146.045 136.850,145.386 136.919,146.191 137.003 M242.487 138.564 C 243.190 138.651,244.244 138.649,244.831 138.560 C 245.418 138.471,244.844 138.400,243.555 138.402 C 242.266 138.404,241.785 138.477,242.487 138.564 M167.669 147.656 C 167.669 148.408,167.749 148.716,167.847 148.340 C 167.946 147.964,167.946 147.349,167.847 146.973 C 167.749 146.597,167.669 146.904,167.669 147.656 M241.313 149.886 C 241.799 149.979,242.502 149.976,242.876 149.878 C 243.249 149.780,242.852 149.704,241.992 149.708 C 241.133 149.712,240.827 149.792,241.313 149.886 M232.202 154.004 L 231.055 155.273 232.324 154.126 C 233.022 153.495,233.594 152.924,233.594 152.857 C 233.594 152.555,233.271 152.821,232.202 154.004 M108.315 171.289 C 108.318 172.363,108.394 172.756,108.483 172.163 C 108.573 171.569,108.571 170.690,108.478 170.209 C 108.385 169.729,108.312 170.215,108.315 171.289 M251.733 175.098 L 250.586 176.367 251.855 175.220 C 252.554 174.589,253.125 174.018,253.125 173.950 C 253.125 173.649,252.803 173.914,251.733 175.098 M108.294 185.547 C 108.294 186.299,108.374 186.606,108.472 186.230 C 108.571 185.854,108.571 185.239,108.472 184.863 C 108.374 184.487,108.294 184.795,108.294 185.547 M204.004 223.722 C 204.810 223.806,206.128 223.806,206.934 223.722 C 207.739 223.638,207.080 223.569,205.469 223.569 C 203.857 223.569,203.198 223.638,204.004 223.722 M217.773 228.125 C 218.613 228.984,219.387 229.688,219.494 229.688 C 219.602 229.688,219.003 228.984,218.164 228.125 C 217.325 227.266,216.550 226.563,216.443 226.563 C 216.336 226.563,216.934 227.266,217.773 228.125 M191.193 229.004 L 189.648 230.664 191.309 229.120 C 192.853 227.684,193.148 227.344,192.853 227.344 C 192.789 227.344,192.042 228.091,191.193 229.004 M228.288 272.014 C 228.176 272.305,228.140 273.667,228.208 275.041 L 228.331 277.539 228.521 274.511 C 228.711 271.480,228.668 271.022,228.288 272.014 M171.591 275.000 C 171.591 275.967,171.667 276.362,171.760 275.879 C 171.853 275.396,171.853 274.604,171.760 274.121 C 171.667 273.638,171.591 274.033,171.591 275.000 " stroke="none" fill="#8e7832" fill-rule="evenodd"></path><path id="path4" d="M80.376 213.167 C 80.862 213.260,81.565 213.257,81.938 213.159 C 82.312 213.061,81.914 212.985,81.055 212.989 C 80.195 212.993,79.890 213.073,80.376 213.167 M73.535 213.551 C 73.911 213.649,74.526 213.649,74.902 213.551 C 75.278 213.452,74.971 213.372,74.219 213.372 C 73.467 213.372,73.159 213.452,73.535 213.551 M318.848 213.551 C 319.224 213.649,319.839 213.649,320.215 213.551 C 320.591 213.452,320.283 213.372,319.531 213.372 C 318.779 213.372,318.472 213.452,318.848 213.551 M66.895 213.941 C 67.271 214.039,67.886 214.039,68.262 213.941 C 68.638 213.843,68.330 213.763,67.578 213.763 C 66.826 213.763,66.519 213.843,66.895 213.941 M60.254 214.332 C 60.630 214.430,61.245 214.430,61.621 214.332 C 61.997 214.234,61.689 214.153,60.938 214.153 C 60.186 214.153,59.878 214.234,60.254 214.332 M332.520 214.332 C 332.896 214.430,333.511 214.430,333.887 214.332 C 334.263 214.234,333.955 214.153,333.203 214.153 C 332.451 214.153,332.144 214.234,332.520 214.332 M53.613 214.722 C 53.989 214.821,54.604 214.821,54.980 214.722 C 55.356 214.624,55.049 214.544,54.297 214.544 C 53.545 214.544,53.237 214.624,53.613 214.722 M339.160 214.722 C 339.536 214.821,340.151 214.821,340.527 214.722 C 340.903 214.624,340.596 214.544,339.844 214.544 C 339.092 214.544,338.784 214.624,339.160 214.722 M345.801 215.113 C 346.177 215.211,346.792 215.211,347.168 215.113 C 347.544 215.015,347.236 214.934,346.484 214.934 C 345.732 214.934,345.425 215.015,345.801 215.113 " stroke="none" fill="#60a559" fill-rule="evenodd"></path><path id="path5" d="M297.266 149.360 C 297.266 149.868,296.768 151.494,296.160 152.974 L 295.054 155.664 296.003 157.813 C 300.433 167.846,298.997 179.049,292.215 187.370 C 290.340 189.670,290.221 189.959,289.596 193.722 C 288.808 198.469,288.877 198.573,291.594 196.702 C 305.834 186.894,309.379 165.707,299.326 150.488 C 297.849 148.252,297.266 147.933,297.266 149.360 M90.300 175.453 C 83.253 193.064,93.062 214.217,110.816 219.695 C 112.994 220.368,108.732 212.230,105.777 210.075 C 101.099 206.662,97.842 202.137,95.857 196.289 C 94.701 192.885,94.270 183.388,95.175 181.268 C 95.533 180.430,95.364 180.012,93.834 177.948 C 92.872 176.649,91.871 175.087,91.610 174.477 L 91.135 173.367 90.300 175.453 M221.966 237.500 C 221.966 238.252,222.046 238.560,222.144 238.184 C 222.243 237.808,222.243 237.192,222.144 236.816 C 222.046 236.440,221.966 236.748,221.966 237.500 M200.098 248.717 C 200.688 248.807,201.655 248.807,202.246 248.717 C 202.837 248.628,202.354 248.555,201.172 248.555 C 199.990 248.555,199.507 248.628,200.098 248.717 M225.391 272.838 C 221.844 273.959,221.875 273.924,221.875 276.710 C 221.875 289.411,208.613 297.927,193.750 294.769 C 184.706 292.847,179.056 286.475,177.918 276.914 L 177.704 275.118 175.668 274.660 C 174.549 274.408,173.237 274.097,172.754 273.969 C 170.665 273.417,171.843 281.704,174.674 287.487 C 183.321 305.146,213.035 306.618,223.938 289.927 C 227.141 285.023,228.259 281.069,228.051 275.374 L 227.930 272.036 225.391 272.838 " stroke="none" fill="#b46c0c" fill-rule="evenodd"></path><path id="path6" d="" stroke="none" fill="#30aa7a" fill-rule="evenodd"></path><path id="path7" d="" stroke="none" fill="#49a969" fill-rule="evenodd"></path><path id="path8" d="M66.211 214.089 C 60.195 214.476,52.394 214.900,48.875 215.030 C 41.971 215.286,40.783 215.597,39.554 217.471 C 38.540 219.020,38.279 349.717,39.280 355.066 C 45.982 390.883,96.231 399.518,106.866 366.680 L 107.778 363.867 107.795 375.684 L 107.813 387.500 112.722 387.500 L 117.631 387.500 117.507 373.340 C 117.366 357.307,117.305 356.968,114.031 354.165 C 108.070 349.063,100.043 352.555,98.465 360.938 C 93.422 387.723,52.890 380.441,48.403 351.944 C 47.970 349.197,48.066 224.851,48.501 224.416 C 48.585 224.331,55.681 223.852,64.269 223.350 L 79.883 222.439 80.178 223.427 C 81.258 227.038,88.064 279.496,89.834 297.852 C 90.911 309.023,91.894 318.762,92.019 319.492 C 92.624 323.042,96.861 324.311,99.453 321.719 C 101.171 320.001,101.174 320.252,99.199 301.571 C 97.541 285.876,97.533 285.547,98.835 285.547 C 100.026 285.547,101.779 284.566,105.078 282.052 C 118.126 272.112,131.112 267.463,148.546 266.490 L 153.538 266.211 150.492 264.388 C 148.817 263.386,145.956 261.498,144.133 260.192 C 140.282 257.434,140.485 257.460,133.519 258.818 C 121.300 261.201,107.902 267.305,99.496 274.319 C 98.467 275.178,97.536 275.791,97.426 275.681 C 97.317 275.572,95.389 262.410,93.142 246.433 C 88.342 212.295,88.968 215.689,87.220 214.355 C 85.489 213.035,83.073 213.004,66.211 214.089 M315.389 213.677 C 311.625 214.496,312.073 212.675,307.414 246.094 C 305.273 261.455,303.388 274.518,303.225 275.123 L 302.930 276.223 300.586 274.383 C 288.917 265.223,274.637 259.669,258.015 257.826 L 254.507 257.436 253.132 258.530 C 251.201 260.067,247.431 262.585,243.740 264.803 L 240.595 266.694 249.106 266.900 C 267.256 267.339,281.177 271.744,293.221 280.859 C 298.331 284.727,299.778 285.591,301.533 285.827 C 303.684 286.115,303.665 284.593,301.743 302.697 C 299.859 320.443,299.858 320.394,302.154 322.200 C 304.066 323.705,307.528 323.085,308.621 321.043 C 309.093 320.161,313.246 278.010,313.023 276.367 C 312.878 275.300,320.036 223.167,320.366 222.884 C 320.559 222.718,351.655 224.572,351.843 224.760 C 352.304 225.221,352.437 349.311,351.979 352.187 C 347.448 380.687,307.218 388.195,301.951 361.523 C 300.230 352.808,292.286 349.353,286.228 354.686 C 283.081 357.455,283.050 357.634,282.891 373.535 L 282.752 387.500 287.665 387.500 L 292.578 387.500 292.596 375.879 L 292.613 364.258 293.524 367.071 C 304.119 399.783,353.946 391.324,361.126 355.595 C 362.120 350.646,361.842 219.398,360.834 217.859 C 359.766 216.228,358.499 215.602,356.201 215.567 C 353.754 215.529,319.991 213.746,317.969 213.547 C 317.217 213.473,316.056 213.532,315.389 213.677 " stroke="none" fill="#049484" fill-rule="evenodd"></path></g></svg>