<svg width="37" height="27" viewBox="0 0 37 27" fill="none" xmlns="http://www.w3.org/2000/svg" class="icon-mastercard" data-v-b9668572=""><circle opacity=".5" cx="11.5" cy="8.5" r="8.5" fill="#fff"></circle><circle opacity=".8" cx="22.5" cy="8.5" r="8.5" fill="#fff"></circle><path d="M5.131 25h-.525v-2.296c0-.467-.208-.7-.623-.7a.96.96 0 00-.504.154 1.233 1.233 0 00-.392.364V25h-.525v-2.296c0-.467-.208-.7-.623-.7a.949.949 0 00-.497.154 1.3 1.3 0 00-.392.371V25H.525v-3.381h.525v.49c.084-.13.231-.259.441-.385s.427-.189.651-.189c.247 0 .448.058.602.175a.833.833 0 01.308.455c.103-.168.259-.315.469-.441.21-.126.432-.189.665-.189.63 0 .945.34.945 1.022V25zm3.686 0h-.525v-.385c-.284.313-.658.469-1.12.469-.312 0-.588-.1-.826-.301-.238-.2-.357-.474-.357-.819 0-.355.117-.628.35-.819a1.27 1.27 0 01.833-.294c.481 0 .854.154 1.12.462v-.609a.633.633 0 00-.238-.525c-.158-.126-.364-.189-.616-.189-.396 0-.742.156-1.036.469l-.245-.364c.36-.373.81-.56 1.351-.56.388 0 .703.093.945.28.243.187.364.474.364.861V25zm-1.456-.294c.42 0 .73-.14.931-.42v-.637c-.2-.28-.51-.42-.93-.42a.876.876 0 00-.603.21.674.674 0 00-.23.532c0 .215.076.392.23.532.159.135.36.203.602.203zm3.58.378c-.574 0-1.03-.177-1.365-.532l.273-.378c.116.135.275.25.476.343.205.093.417.14.637.14.252 0 .448-.054.588-.161a.505.505 0 00.21-.42c0-.15-.073-.266-.217-.35a1.618 1.618 0 00-.525-.196c-.2-.047-.404-.098-.61-.154a1.252 1.252 0 01-.524-.301.767.767 0 01-.217-.567c0-.275.112-.506.336-.693.228-.187.536-.28.924-.28.508 0 .926.163 1.253.49l-.245.364c-.238-.285-.574-.427-1.008-.427-.229 0-.41.051-.546.154a.448.448 0 00-.203.378c0 .135.072.243.217.322.144.075.317.135.518.182.205.042.41.093.616.154.205.06.38.168.525.322.144.15.217.345.217.588a.908.908 0 01-.35.735c-.234.191-.56.287-.98.287zm3.037 0c-.248 0-.434-.068-.56-.203-.126-.135-.19-.331-.19-.588v-2.212h-.56v-.462h.56v-.924h.526v.924h.686v.462h-.686v2.1c0 .13.028.236.084.315.06.08.147.119.259.119a.456.456 0 00.357-.14l.154.392c-.154.145-.364.217-.63.217zm2.73 0c-.505 0-.918-.163-1.24-.49-.322-.331-.483-.76-.483-1.288 0-.495.159-.912.476-1.253a1.549 1.549 0 011.19-.518c.5 0 .894.173 1.183.518.294.34.441.772.441 1.295v.133h-2.737c.024.331.145.609.364.833.22.224.504.336.854.336.42 0 .768-.142 1.043-.427l.252.343c-.345.345-.793.518-1.344.518zm1.05-1.988a1.21 1.21 0 00-.295-.777c-.191-.233-.464-.35-.819-.35-.336 0-.602.114-.798.343-.191.229-.294.49-.308.784h2.22zM19.65 25h-.525v-3.381h.525v.546c.312-.41.688-.616 1.127-.616v.539a1 1 0 00-.21-.021c-.16 0-.332.056-.518.168-.187.112-.32.236-.4.371V25zm3.276.084c-.5 0-.905-.168-1.218-.504-.313-.34-.469-.765-.469-1.274s.157-.931.47-1.267c.312-.336.718-.504 1.217-.504.523 0 .936.196 1.24.588l-.35.322a1.013 1.013 0 00-.862-.441c-.354 0-.64.121-.854.364-.21.243-.315.555-.315.938 0 .383.105.698.315.945.215.243.5.364.854.364.355 0 .642-.147.861-.441l.35.322c-.303.392-.716.588-1.239.588zM27.541 25h-.525v-.385c-.285.313-.658.469-1.12.469-.313 0-.588-.1-.826-.301-.238-.2-.357-.474-.357-.819 0-.355.117-.628.35-.819a1.27 1.27 0 01.833-.294c.48 0 .854.154 1.12.462v-.609a.633.633 0 00-.238-.525c-.159-.126-.364-.189-.616-.189-.397 0-.742.156-1.036.469l-.245-.364c.36-.373.81-.56 1.351-.56.387 0 .702.093.945.28.243.187.364.474.364.861V25zm-1.456-.294c.42 0 .73-.14.931-.42v-.637c-.2-.28-.511-.42-.931-.42a.876.876 0 00-.602.21.674.674 0 00-.231.532c0 .215.077.392.231.532.159.135.36.203.602.203zm3.033.294h-.525v-3.381h.525v.546c.313-.41.689-.616 1.127-.616v.539a1.002 1.002 0 00-.21-.021 1.02 1.02 0 00-.518.168c-.186.112-.32.236-.399.371V25zm4.76 0h-.524v-.504c-.29.392-.67.588-1.141.588-.448 0-.812-.159-1.092-.476-.275-.322-.413-.754-.413-1.295 0-.537.138-.966.413-1.288.28-.327.644-.49 1.092-.49.467 0 .847.198 1.14.595v-1.799h.526V25zm-1.54-.385c.206 0 .402-.051.589-.154.187-.103.329-.229.427-.378V22.55a1.135 1.135 0 00-.434-.385 1.15 1.15 0 00-.581-.161.957.957 0 00-.791.371c-.196.243-.294.555-.294.938 0 .383.098.695.294.938.196.243.46.364.79.364zm3.145.343a.371.371 0 01-.273.112.371.371 0 01-.273-.112.371.371 0 01-.112-.273c0-.107.038-.198.112-.273a.371.371 0 01.273-.112c.108 0 .199.037.273.112a.372.372 0 01.112.273.372.372 0 01-.112.273z" fill="#fff"></path></svg>