<svg xmlns="http://www.w3.org/2000/svg" height="18" viewBox="0 0 50 16" class="icon-visa" data-v-b9668572=""><path d="M36.35.66A10.08 10.08 0 0032.72 0c-4 0-6.82 2.11-6.83 5.12 0 2.22 2 3.46 3.55 4.2s2.1 1.25 2.1 1.93c0 1-1.27 1.52-2.43 1.52a8.14 8.14 0 01-3.8-.82l-.53-.25-.58 3.48a12.45 12.45 0 004.52.82c4.25 0 7-2.08 7-5.29 0-1.76-1.07-3.11-3.4-4.22-1.42-.71-2.28-1.19-2.28-1.91s.73-1.33 2.33-1.33a7 7 0 013 .59l.43.16zM21.67 15.77h-4.05L20.15.28h4.05zM46.73.28H43.6a2 2 0 00-2.12 1.29l-6 14.2h4.25l.85-2.32h5.2c.12.54.48 2.32.48 2.32H50zm-5 10l1.62-4.33.13-.35c.12-.32.29-.79.41-1.13l.28 1.33.93 4.48h-3.37zm-27.5-10l-4 10.56-.4-2.14-1.41-7.12A1.67 1.67 0 006.58.28H.07L0 .59a16.62 16.62 0 014.26 1.7l3.61 13.46h4.28L18.52.28h-4.29z" fill="#fff"></path></svg>